<svg viewBox="0 0 22 22" fill="none" xmlns="http://www.w3.org/2000/svg">
<path fill-rule="evenodd" clip-rule="evenodd" d="M20.1667 2C20.1667 0.895431 19.2713 0 18.1667 0H3.83338C2.72881 0 1.83337 0.895431 1.83337 2V20C1.83337 21.1046 2.7288 22 3.83337 22H14.6667L20.1667 16.5V2ZM11.9167 17.4167H4.58337V18.3333H11.9167V17.4167ZM11.9167 14.6667H4.58337V15.5833H11.9167V14.6667ZM17.4167 12.8333V11.9167H4.58337V12.8333H17.4167ZM10.946 8.27933C9.89454 8.03642 8.91646 7.82375 9.39037 6.92908C10.8323 4.20658 9.77262 2.75 8.25004 2.75C6.69721 2.75 5.66412 4.2625 7.10971 6.92908C7.59737 7.82925 6.58262 8.04192 5.55412 8.27933C4.61546 8.49658 4.58062 8.96225 4.58337 9.77808L4.58429 10.0833H11.9149L11.9158 9.78725C11.9195 8.96592 11.8883 8.4975 10.946 8.27933ZM17.4167 9.16667H13.75V10.0833H17.4167V9.16667ZM17.4167 7.33333V6.41667H13.75V7.33333H17.4167ZM17.4167 3.66667H13.75V4.58333H17.4167V3.66667Z" fill="#F8E186"/>
</svg>
