<svg viewBox="-3 -1 24 24" fill="none" xmlns="http://www.w3.org/2000/svg">
<g clip-path="url(#clip0_84_2)">
<path d="M9.5 11C9.5 10.0275 9.89509 9.09489 10.5983 8.40725C11.3016 7.71962 12.2554 7.33331 13.25 7.33331C14.2446 7.33331 15.1984 7.71962 15.9017 8.40725C16.6049 9.09489 17 10.0275 17 11C17 11.9724 16.6049 12.9051 15.9017 13.5927C15.1984 14.2803 14.2446 14.6666 13.25 14.6666C12.2554 14.6666 11.3016 14.2803 10.5983 13.5927C9.89509 12.9051 9.5 11.9724 9.5 11Z" fill="#A385FF"/>
<path d="M2 18.3334C2 17.3609 2.39509 16.4283 3.09835 15.7406C3.80161 15.053 4.75544 14.6667 5.75 14.6667H9.5V18.3334C9.5 19.3058 9.10491 20.2384 8.40165 20.9261C7.69839 21.6137 6.74456 22 5.75 22C4.75544 22 3.80161 21.6137 3.09835 20.9261C2.39509 20.2384 2 19.3058 2 18.3334H2Z" fill="#A385FF"/>
<path d="M9.5 0V7.33333H13.25C14.2446 7.33333 15.1984 6.94703 15.9017 6.25939C16.6049 5.57176 17 4.63913 17 3.66667C17 2.69421 16.6049 1.76158 15.9017 1.07394C15.1984 0.386308 14.2446 0 13.25 0L9.5 0Z" fill="#A385FF"/>
<path d="M2 3.66667C2 4.63913 2.39509 5.57176 3.09835 6.25939C3.80161 6.94703 4.75544 7.33333 5.75 7.33333H9.5V0H5.75C4.75544 0 3.80161 0.386308 3.09835 1.07394C2.39509 1.76158 2 2.69421 2 3.66667H2Z" fill="#A385FF"/>
<path d="M2 11C2 11.9724 2.39509 12.9051 3.09835 13.5927C3.80161 14.2803 4.75544 14.6666 5.75 14.6666H9.5V7.33331H5.75C4.75544 7.33331 3.80161 7.71962 3.09835 8.40725C2.39509 9.09489 2 10.0275 2 11H2Z" fill="#A385FF"/>
</g>
<defs>
<clipPath id="clip0_84_2">
<rect width="15" height="22" fill="white" transform="translate(2)"/>
</clipPath>
</defs>
</svg>
